<svg aria-hidden="true" style="position: absolute; width: 0; height: 0; overflow: hidden;" version="1.1" xmlns="http://www.w3.org/2000/svg" xmlns:xlink="http://www.w3.org/1999/xlink">
<defs>
<symbol id="icon-back" viewBox="0 0 64 32">
<path fill="#ff6b08" style="fill: var(--color1, #ff6b08)" d="M0.733 17.827c0.001 0.001 0.001 0.002 0.002 0.002l13.063 13.419c0.979 1.005 2.561 1.002 3.536-0.009s0.97-2.644-0.008-3.65l-8.771-9.009h52.945c1.381 0 2.5-1.155 2.5-2.581s-1.119-2.581-2.5-2.581h-52.945l8.77-9.010c0.979-1.005 0.982-2.639 0.008-3.65s-2.557-1.014-3.536-0.009l-13.063 13.419c-0.001 0.001-0.001 0.002-0.002 0.002-0.979 1.009-0.976 2.648 0 3.653z"></path>
</symbol>
</defs>
</svg>